<?xml version="1.0" encoding="utf-8"?>
<!-- Generator: Adobe Illustrator 26.0.3, SVG Export Plug-In . SVG Version: 6.00 Build 0)  -->
<svg version="1.1" id="Layer_1" xmlns="http://www.w3.org/2000/svg" xmlns:xlink="http://www.w3.org/1999/xlink" x="0px" y="0px"
	 viewBox="0 0 440.14 115.04" style="enable-background:new 0 0 440.14 115.04;" xml:space="preserve">
<style type="text/css">
	.st0{fill:#772A82;}
	.st1{fill-rule:evenodd;clip-rule:evenodd;fill:#F48020;}
	.st2{fill:#FFFFFF;}
	.st3{fill-rule:evenodd;clip-rule:evenodd;fill:#FF8300;}
	.st4{fill-rule:evenodd;clip-rule:evenodd;fill:none;}
	.st5{fill:#7A2682;}
</style>
<g>
	<g>
		<rect x="102.58" y="82.35" class="st2" width="336.49" height="0.83"/>
		<g>
			<path class="st2" d="M113.35,97.68c0.9,0.4,1.59,0.97,2.06,1.71c0.48,0.74,0.72,1.63,0.72,2.65c0,1.01-0.24,1.89-0.72,2.64
				c-0.48,0.75-1.17,1.33-2.06,1.72c-0.9,0.4-1.95,0.6-3.16,0.6h-3.15v4.03h-2.59V97.08h5.74C111.4,97.08,112.46,97.28,113.35,97.68
				z M112.65,104.1c0.58-0.48,0.88-1.16,0.88-2.05c0-0.89-0.29-1.57-0.88-2.05c-0.58-0.48-1.44-0.72-2.57-0.72h-3.03v5.54h3.03
				C111.2,104.81,112.06,104.58,112.65,104.1z"/>
			<path class="st2" d="M128.99,100.39v10.64h-2.37v-1.36c-0.4,0.48-0.9,0.85-1.49,1.11c-0.6,0.26-1.24,0.39-1.93,0.39
				c-1.42,0-2.54-0.4-3.36-1.19c-0.82-0.79-1.23-1.96-1.23-3.52v-6.08h2.49v5.74c0,0.96,0.22,1.67,0.65,2.14
				c0.43,0.47,1.05,0.71,1.84,0.71c0.89,0,1.6-0.28,2.12-0.83c0.52-0.55,0.79-1.35,0.79-2.38v-5.38H128.99z"/>
			<path class="st2" d="M138.42,100.27v2.37c-0.21-0.04-0.41-0.06-0.58-0.06c-0.97,0-1.73,0.28-2.27,0.85
				c-0.54,0.57-0.82,1.38-0.82,2.44v5.16h-2.49v-10.64h2.37v1.55C135.35,100.83,136.61,100.27,138.42,100.27z"/>
			<path class="st2" d="M142.35,110.48c-0.88-0.47-1.56-1.11-2.05-1.94c-0.49-0.83-0.74-1.77-0.74-2.82s0.25-1.99,0.74-2.81
				c0.49-0.82,1.17-1.47,2.04-1.93c0.87-0.47,1.86-0.7,2.98-0.7c1.05,0,1.97,0.21,2.76,0.64c0.79,0.43,1.39,1.04,1.78,1.83
				l-1.91,1.12c-0.31-0.49-0.69-0.86-1.15-1.11c-0.46-0.25-0.96-0.37-1.51-0.37c-0.93,0-1.7,0.3-2.31,0.91
				c-0.61,0.61-0.92,1.41-0.92,2.42s0.3,1.82,0.91,2.42c0.6,0.61,1.38,0.91,2.32,0.91c0.54,0,1.05-0.12,1.51-0.37
				s0.84-0.61,1.15-1.11l1.91,1.12c-0.41,0.8-1.01,1.41-1.8,1.84s-1.7,0.65-2.74,0.65C144.21,111.17,143.22,110.94,142.35,110.48z"
				/>
			<path class="st2" d="M161.18,101.45c0.81,0.78,1.22,1.95,1.22,3.49v6.1h-2.49v-5.78c0-0.93-0.22-1.63-0.66-2.1
				c-0.44-0.47-1.06-0.71-1.87-0.71c-0.92,0-1.64,0.28-2.17,0.83c-0.53,0.55-0.8,1.35-0.8,2.38v5.38h-2.49V96.24h2.49v5.38
				c0.41-0.44,0.92-0.77,1.52-1.01c0.61-0.23,1.28-0.35,2.02-0.35C159.3,100.27,160.37,100.66,161.18,101.45z"/>
			<path class="st2" d="M173.24,101.4c0.83,0.75,1.25,1.88,1.25,3.4v6.24h-2.35v-1.3c-0.31,0.47-0.74,0.82-1.31,1.07
				c-0.57,0.25-1.25,0.37-2.04,0.37c-0.8,0-1.49-0.14-2.09-0.41c-0.6-0.27-1.06-0.65-1.39-1.14c-0.33-0.49-0.49-1.03-0.49-1.64
				c0-0.96,0.36-1.72,1.07-2.3c0.71-0.58,1.83-0.87,3.36-0.87h2.75v-0.16c0-0.74-0.22-1.32-0.67-1.71c-0.44-0.4-1.11-0.6-1.98-0.6
				c-0.6,0-1.19,0.09-1.76,0.28c-0.58,0.19-1.07,0.45-1.46,0.78l-0.98-1.81c0.56-0.43,1.23-0.75,2.01-0.98
				c0.78-0.23,1.62-0.34,2.49-0.34C171.2,100.27,172.4,100.64,173.24,101.4z M170.96,108.93c0.48-0.29,0.83-0.69,1.03-1.23v-1.24
				h-2.57c-1.44,0-2.15,0.47-2.15,1.41c0,0.45,0.18,0.81,0.54,1.08c0.36,0.27,0.86,0.4,1.49,0.4
				C169.92,109.36,170.48,109.22,170.96,108.93z"/>
			<path class="st2" d="M178.43,110.83c-0.82-0.23-1.48-0.51-1.97-0.86l0.96-1.89c0.48,0.32,1.05,0.58,1.72,0.77
				c0.67,0.19,1.33,0.29,1.98,0.29c1.49,0,2.23-0.39,2.23-1.18c0-0.37-0.19-0.63-0.57-0.78c-0.38-0.15-0.99-0.29-1.82-0.42
				c-0.88-0.13-1.59-0.29-2.14-0.46s-1.03-0.47-1.44-0.91c-0.41-0.43-0.61-1.03-0.61-1.8c0-1.01,0.42-1.82,1.27-2.42
				c0.84-0.6,1.98-0.91,3.42-0.91c0.73,0,1.46,0.08,2.19,0.25c0.73,0.17,1.33,0.39,1.79,0.67l-0.96,1.89
				c-0.9-0.53-1.92-0.8-3.05-0.8c-0.73,0-1.29,0.11-1.66,0.33c-0.38,0.22-0.57,0.51-0.57,0.87c0,0.4,0.2,0.68,0.61,0.85
				c0.4,0.17,1.03,0.32,1.88,0.47c0.85,0.13,1.55,0.29,2.09,0.46c0.54,0.17,1.01,0.47,1.41,0.88c0.39,0.41,0.59,1,0.59,1.75
				c0,1-0.43,1.79-1.3,2.39c-0.86,0.6-2.04,0.9-3.53,0.9C180.09,111.17,179.25,111.06,178.43,110.83z"/>
			<path class="st2" d="M197.9,106.51h-8.35c0.15,0.78,0.53,1.41,1.15,1.86c0.62,0.46,1.39,0.69,2.3,0.69
				c1.17,0,2.13-0.39,2.89-1.16l1.34,1.53c-0.48,0.57-1.08,1-1.81,1.3c-0.73,0.29-1.55,0.44-2.47,0.44c-1.17,0-2.2-0.23-3.09-0.7
				c-0.89-0.47-1.58-1.11-2.06-1.94c-0.48-0.83-0.73-1.77-0.73-2.82c0-1.04,0.24-1.97,0.71-2.8c0.47-0.83,1.13-1.48,1.96-1.94
				c0.84-0.47,1.78-0.7,2.83-0.7c1.04,0,1.96,0.23,2.78,0.69c0.82,0.46,1.45,1.1,1.91,1.93c0.46,0.83,0.69,1.79,0.69,2.88
				C197.94,105.94,197.93,106.19,197.9,106.51z M190.54,102.97c-0.55,0.47-0.89,1.1-1.01,1.88h6.04c-0.11-0.77-0.43-1.4-0.98-1.87
				c-0.54-0.48-1.22-0.72-2.03-0.72C191.76,102.26,191.09,102.5,190.54,102.97z"/>
			<path class="st2" d="M214.52,100.95c0.82,0.45,1.46,1.09,1.92,1.91c0.47,0.82,0.7,1.77,0.7,2.85c0,1.08-0.23,2.03-0.7,2.86
				c-0.47,0.83-1.11,1.47-1.92,1.92c-0.82,0.45-1.74,0.68-2.78,0.68c-1.44,0-2.57-0.48-3.41-1.44v5.16h-2.49v-14.51h2.37v1.4
				c0.41-0.5,0.92-0.88,1.52-1.14c0.61-0.25,1.27-0.38,2-0.38C212.77,100.27,213.7,100.5,214.52,100.95z M213.72,108.12
				c0.59-0.61,0.89-1.42,0.89-2.41c0-1-0.3-1.8-0.89-2.41c-0.59-0.61-1.35-0.92-2.26-0.92c-0.6,0-1.14,0.14-1.61,0.41
				c-0.48,0.27-0.86,0.66-1.14,1.17c-0.28,0.5-0.42,1.09-0.42,1.75s0.14,1.25,0.42,1.75c0.28,0.5,0.66,0.89,1.14,1.17
				c0.48,0.27,1.02,0.41,1.61,0.41C212.37,109.04,213.13,108.73,213.72,108.12z"/>
			<path class="st2" d="M227.04,101.4c0.83,0.75,1.25,1.88,1.25,3.4v6.24h-2.35v-1.3c-0.31,0.47-0.74,0.82-1.31,1.07
				c-0.57,0.25-1.25,0.37-2.04,0.37c-0.8,0-1.49-0.14-2.09-0.41c-0.6-0.27-1.06-0.65-1.39-1.14c-0.33-0.49-0.49-1.03-0.49-1.64
				c0-0.96,0.36-1.72,1.07-2.3c0.71-0.58,1.83-0.87,3.36-0.87h2.75v-0.16c0-0.74-0.22-1.32-0.67-1.71c-0.44-0.4-1.11-0.6-1.98-0.6
				c-0.6,0-1.19,0.09-1.76,0.28c-0.58,0.19-1.07,0.45-1.46,0.78l-0.98-1.81c0.56-0.43,1.23-0.75,2.01-0.98
				c0.78-0.23,1.62-0.34,2.49-0.34C225.01,100.27,226.2,100.64,227.04,101.4z M224.76,108.93c0.48-0.29,0.83-0.69,1.03-1.23v-1.24
				h-2.57c-1.44,0-2.15,0.47-2.15,1.41c0,0.45,0.18,0.81,0.54,1.08c0.36,0.27,0.86,0.4,1.49,0.4
				C223.72,109.36,224.28,109.22,224.76,108.93z"/>
			<path class="st2" d="M237.63,100.27v2.37c-0.21-0.04-0.41-0.06-0.58-0.06c-0.97,0-1.73,0.28-2.27,0.85
				c-0.54,0.57-0.82,1.38-0.82,2.44v5.16h-2.49v-10.64h2.37v1.55C234.56,100.83,235.82,100.27,237.63,100.27z"/>
			<path class="st2" d="M246.54,110.46c-0.29,0.24-0.65,0.42-1.07,0.54c-0.42,0.12-0.86,0.18-1.33,0.18c-1.17,0-2.07-0.31-2.71-0.92
				c-0.64-0.61-0.96-1.5-0.96-2.67v-5.12h-1.75v-1.99h1.75v-2.43h2.49v2.43h2.85v1.99h-2.85v5.06c0,0.52,0.13,0.91,0.38,1.19
				c0.25,0.27,0.62,0.41,1.1,0.41c0.56,0,1.02-0.15,1.4-0.44L246.54,110.46z"/>
			<path class="st2" d="M257.86,101.45c0.81,0.78,1.22,1.95,1.22,3.49v6.1h-2.49v-5.78c0-0.93-0.22-1.63-0.66-2.1
				c-0.44-0.47-1.06-0.71-1.87-0.71c-0.92,0-1.64,0.28-2.17,0.83c-0.53,0.55-0.8,1.35-0.8,2.38v5.38h-2.49v-10.64h2.37v1.38
				c0.41-0.49,0.93-0.86,1.55-1.12c0.62-0.25,1.33-0.38,2.11-0.38C255.98,100.27,257.05,100.66,257.86,101.45z"/>
			<path class="st2" d="M272.32,106.51h-8.35c0.15,0.78,0.53,1.41,1.15,1.86c0.62,0.46,1.39,0.69,2.3,0.69
				c1.17,0,2.13-0.39,2.89-1.16l1.34,1.53c-0.48,0.57-1.08,1-1.81,1.3c-0.73,0.29-1.55,0.44-2.47,0.44c-1.17,0-2.2-0.23-3.09-0.7
				c-0.89-0.47-1.58-1.11-2.06-1.94c-0.48-0.83-0.73-1.77-0.73-2.82c0-1.04,0.24-1.97,0.71-2.8c0.47-0.83,1.13-1.48,1.96-1.94
				c0.84-0.47,1.78-0.7,2.83-0.7c1.04,0,1.96,0.23,2.78,0.69c0.82,0.46,1.45,1.1,1.91,1.93c0.46,0.83,0.69,1.79,0.69,2.88
				C272.36,105.94,272.34,106.19,272.32,106.51z M264.95,102.97c-0.55,0.47-0.89,1.1-1.01,1.88h6.04c-0.11-0.77-0.43-1.4-0.98-1.87
				c-0.54-0.48-1.22-0.72-2.03-0.72C266.18,102.26,265.5,102.5,264.95,102.97z"/>
			<path class="st2" d="M280.91,100.27v2.37c-0.21-0.04-0.41-0.06-0.58-0.06c-0.97,0-1.73,0.28-2.27,0.85
				c-0.54,0.57-0.82,1.38-0.82,2.44v5.16h-2.49v-10.64h2.37v1.55C277.84,100.83,279.1,100.27,280.91,100.27z"/>
			<path class="st2" d="M295.02,110.46c-0.29,0.24-0.65,0.42-1.07,0.54c-0.42,0.12-0.86,0.18-1.33,0.18c-1.17,0-2.07-0.31-2.71-0.92
				c-0.64-0.61-0.96-1.5-0.96-2.67v-5.12h-1.75v-1.99h1.75v-2.43h2.49v2.43h2.85v1.99h-2.85v5.06c0,0.52,0.13,0.91,0.38,1.19
				c0.25,0.27,0.62,0.41,1.1,0.41c0.56,0,1.02-0.15,1.4-0.44L295.02,110.46z"/>
			<path class="st2" d="M298.59,110.48c-0.86-0.47-1.54-1.11-2.02-1.94c-0.48-0.83-0.73-1.77-0.73-2.82s0.24-1.99,0.73-2.81
				c0.49-0.82,1.16-1.47,2.02-1.93c0.86-0.47,1.83-0.7,2.91-0.7c1.09,0,2.07,0.23,2.93,0.7s1.54,1.11,2.02,1.93s0.73,1.76,0.73,2.81
				s-0.24,1.99-0.73,2.82c-0.49,0.83-1.16,1.48-2.02,1.94c-0.86,0.47-1.84,0.7-2.93,0.7C300.42,111.17,299.45,110.94,298.59,110.48z
				 M303.77,108.12c0.6-0.61,0.9-1.42,0.9-2.41c0-1-0.3-1.8-0.9-2.41c-0.6-0.61-1.36-0.92-2.27-0.92c-0.92,0-1.67,0.31-2.26,0.92
				c-0.59,0.61-0.89,1.42-0.89,2.41c0,1,0.3,1.8,0.89,2.41c0.59,0.61,1.35,0.92,2.26,0.92
				C302.41,109.04,303.17,108.73,303.77,108.12z"/>
			<path class="st2" d="M325.04,106.51h-8.35c0.15,0.78,0.53,1.41,1.15,1.86c0.62,0.46,1.39,0.69,2.3,0.69
				c1.17,0,2.13-0.39,2.89-1.16l1.34,1.53c-0.48,0.57-1.08,1-1.81,1.3c-0.73,0.29-1.55,0.44-2.47,0.44c-1.17,0-2.2-0.23-3.09-0.7
				c-0.89-0.47-1.58-1.11-2.06-1.94c-0.48-0.83-0.73-1.77-0.73-2.82c0-1.04,0.24-1.97,0.71-2.8c0.47-0.83,1.13-1.48,1.96-1.94
				c0.84-0.47,1.78-0.7,2.83-0.7c1.04,0,1.96,0.23,2.78,0.69c0.82,0.46,1.45,1.1,1.91,1.93c0.46,0.83,0.69,1.79,0.69,2.88
				C325.08,105.94,325.07,106.19,325.04,106.51z M317.67,102.97c-0.55,0.47-0.89,1.1-1.01,1.88h6.04c-0.11-0.77-0.43-1.4-0.98-1.87
				c-0.54-0.48-1.22-0.72-2.03-0.72C318.9,102.26,318.23,102.5,317.67,102.97z"/>
			<path class="st2" d="M337.24,100.39l-4.57,10.64h-2.57l-4.56-10.64h2.59l3.31,7.89l3.41-7.89H337.24z"/>
			<path class="st2" d="M348.46,106.51h-8.35c0.15,0.78,0.53,1.41,1.15,1.86c0.62,0.46,1.39,0.69,2.3,0.69
				c1.17,0,2.13-0.39,2.89-1.16l1.34,1.53c-0.48,0.57-1.08,1-1.81,1.3c-0.73,0.29-1.55,0.44-2.47,0.44c-1.17,0-2.2-0.23-3.09-0.7
				c-0.89-0.47-1.58-1.11-2.06-1.94c-0.48-0.83-0.73-1.77-0.73-2.82c0-1.04,0.24-1.97,0.71-2.8c0.47-0.83,1.13-1.48,1.96-1.94
				c0.84-0.47,1.78-0.7,2.83-0.7c1.04,0,1.96,0.23,2.78,0.69c0.82,0.46,1.45,1.1,1.91,1.93c0.46,0.83,0.69,1.79,0.69,2.88
				C348.5,105.94,348.49,106.19,348.46,106.51z M341.1,102.97c-0.55,0.47-0.89,1.1-1.01,1.88h6.04c-0.11-0.77-0.43-1.4-0.98-1.87
				c-0.54-0.48-1.22-0.72-2.03-0.72C342.32,102.26,341.65,102.5,341.1,102.97z"/>
			<path class="st2" d="M357.05,100.27v2.37c-0.21-0.04-0.41-0.06-0.58-0.06c-0.97,0-1.73,0.28-2.27,0.85
				c-0.54,0.57-0.82,1.38-0.82,2.44v5.16h-2.49v-10.64h2.37v1.55C353.98,100.83,355.25,100.27,357.05,100.27z"/>
			<path class="st2" d="M369.53,100.39l-4.98,11.5c-0.47,1.16-1.03,1.97-1.69,2.44c-0.66,0.47-1.47,0.71-2.41,0.71
				c-0.53,0-1.06-0.09-1.58-0.26c-0.52-0.17-0.94-0.41-1.28-0.72l1-1.83c0.24,0.23,0.52,0.41,0.85,0.54c0.32,0.13,0.65,0.2,0.99,0.2
				c0.44,0,0.8-0.11,1.09-0.34c0.29-0.23,0.55-0.61,0.79-1.14l0.18-0.42l-4.64-10.68h2.59l3.35,7.87l3.37-7.87H369.53z"/>
			<path class="st2" d="M376.83,97.08h2.59v13.95h-2.59V97.08z"/>
			<path class="st2" d="M392.22,101.45c0.81,0.78,1.22,1.95,1.22,3.49v6.1h-2.49v-5.78c0-0.93-0.22-1.63-0.66-2.1
				c-0.44-0.47-1.06-0.71-1.87-0.71c-0.92,0-1.64,0.28-2.17,0.83c-0.53,0.55-0.8,1.35-0.8,2.38v5.38h-2.49v-10.64h2.37v1.38
				c0.41-0.49,0.93-0.86,1.55-1.12c0.62-0.25,1.33-0.38,2.11-0.38C390.33,100.27,391.41,100.66,392.22,101.45z"/>
			<path class="st2" d="M407.13,96.24v14.79h-2.39v-1.38c-0.41,0.51-0.92,0.88-1.53,1.14c-0.6,0.25-1.27,0.38-2,0.38
				c-1.02,0-1.94-0.23-2.76-0.68c-0.82-0.45-1.46-1.09-1.92-1.92c-0.47-0.83-0.7-1.78-0.7-2.86c0-1.08,0.23-2.03,0.7-2.85
				c0.46-0.82,1.11-1.46,1.92-1.91c0.82-0.45,1.74-0.68,2.76-0.68c0.7,0,1.35,0.12,1.93,0.36c0.58,0.24,1.08,0.6,1.49,1.08v-5.46
				H407.13z M403.12,108.63c0.48-0.27,0.86-0.66,1.14-1.17c0.28-0.5,0.42-1.09,0.42-1.75s-0.14-1.25-0.42-1.75
				c-0.28-0.5-0.66-0.89-1.14-1.17c-0.48-0.27-1.02-0.41-1.61-0.41s-1.14,0.14-1.61,0.41c-0.48,0.27-0.86,0.66-1.14,1.17
				c-0.28,0.5-0.42,1.09-0.42,1.75s0.14,1.25,0.42,1.75c0.28,0.5,0.66,0.89,1.14,1.17c0.48,0.27,1.02,0.41,1.61,0.41
				S402.64,108.9,403.12,108.63z"/>
			<path class="st2" d="M410.51,98.21c-0.31-0.29-0.46-0.64-0.46-1.07s0.15-0.78,0.46-1.07c0.31-0.29,0.68-0.43,1.14-0.43
				c0.45,0,0.83,0.14,1.14,0.41c0.31,0.27,0.46,0.61,0.46,1.03c0,0.44-0.15,0.81-0.45,1.11c-0.3,0.3-0.68,0.45-1.15,0.45
				C411.2,98.63,410.82,98.49,410.51,98.21z M410.39,100.39h2.49v10.64h-2.49V100.39z"/>
			<path class="st2" d="M423.82,101.4c0.83,0.75,1.25,1.88,1.25,3.4v6.24h-2.35v-1.3c-0.31,0.47-0.74,0.82-1.31,1.07
				c-0.57,0.25-1.25,0.37-2.04,0.37s-1.49-0.14-2.09-0.41c-0.6-0.27-1.06-0.65-1.39-1.14c-0.33-0.49-0.49-1.03-0.49-1.64
				c0-0.96,0.36-1.72,1.07-2.3s1.83-0.87,3.36-0.87h2.75v-0.16c0-0.74-0.22-1.32-0.67-1.71c-0.44-0.4-1.11-0.6-1.98-0.6
				c-0.6,0-1.19,0.09-1.76,0.28c-0.58,0.19-1.07,0.45-1.46,0.78l-0.98-1.81c0.56-0.43,1.23-0.75,2.01-0.98
				c0.78-0.23,1.62-0.34,2.49-0.34C421.79,100.27,422.99,100.64,423.82,101.4z M421.55,108.93c0.48-0.29,0.83-0.69,1.03-1.23v-1.24
				H420c-1.44,0-2.15,0.47-2.15,1.41c0,0.45,0.18,0.81,0.54,1.08c0.36,0.27,0.86,0.4,1.49,0.4
				C420.51,109.36,421.06,109.22,421.55,108.93z"/>
			<path class="st2" d="M437.52,101.45c0.81,0.78,1.22,1.95,1.22,3.49v6.1h-2.49v-5.78c0-0.93-0.22-1.63-0.66-2.1
				c-0.44-0.47-1.06-0.71-1.87-0.71c-0.92,0-1.64,0.28-2.17,0.83c-0.53,0.55-0.8,1.35-0.8,2.38v5.38h-2.49v-10.64h2.37v1.38
				c0.41-0.49,0.93-0.86,1.55-1.12c0.62-0.25,1.33-0.38,2.11-0.38C435.64,100.27,436.71,100.66,437.52,101.45z"/>
		</g>
		<g>
			<path class="st2" d="M367.54,69.42v-48.3h-7.19v48.3H367.54z M321.78,57.57l-16.26-36.45h-7.94l24.35,52.78l23.95-52.78h-7.75
				L321.78,57.57z M109.77,69.42v-48.3h-7.2v48.3H109.77z M285.16,45.26c0,2.6-0.43,5.03-1.3,7.29c-0.87,2.26-2.07,4.23-3.62,5.9
				c-1.55,1.67-3.41,2.99-5.57,3.95c-2.17,0.96-4.55,1.44-7.15,1.44c-2.54,0-4.89-0.49-7.06-1.48c-2.17-0.99-4.04-2.32-5.62-3.99
				c-1.58-1.67-2.82-3.65-3.71-5.94c-0.9-2.29-1.35-4.74-1.35-7.33c0-2.6,0.43-5.03,1.3-7.29c0.87-2.26,2.06-4.24,3.57-5.94
				c1.51-1.7,3.36-3.03,5.52-3.99c2.17-0.96,4.55-1.44,7.15-1.44c2.54,0,4.89,0.49,7.06,1.49c2.17,0.99,4.05,2.34,5.67,4.04
				c1.61,1.7,2.86,3.7,3.76,5.99C284.72,40.22,285.16,42.67,285.16,45.26z M292.5,45.08c0-3.41-0.62-6.62-1.86-9.66
				c-1.24-3.03-2.97-5.68-5.2-7.94c-2.23-2.26-4.87-4.06-7.94-5.38c-3.06-1.33-6.39-2-9.98-2c-3.65,0-7.01,0.67-10.07,2
				c-3.06,1.33-5.71,3.14-7.94,5.43c-2.23,2.29-3.96,4.97-5.2,8.03c-1.24,3.06-1.86,6.3-1.86,9.7c0,3.4,0.62,6.62,1.86,9.66
				c1.24,3.03,2.97,5.68,5.2,7.94c2.23,2.26,4.86,4.05,7.89,5.39c3.03,1.33,6.34,2,9.94,2c3.59,0,6.93-0.67,10.03-2
				c3.09-1.33,5.76-3.14,7.99-5.43c2.23-2.29,3.98-4.97,5.25-8.03C291.86,51.72,292.5,48.48,292.5,45.08z M208.36,20.09
				L208.36,20.09c11.61,0,21.11,9.5,21.11,21.12v28.21h-7.19V41.07c0-9.73-6.26-14.06-13.92-14.06c-7.66,0-13.92,4.33-13.92,14.06
				v28.36h-7.19V41.21C187.25,29.6,196.75,20.09,208.36,20.09z M150.82,20.09L150.82,20.09c11.61,0,21.11,9.5,21.11,21.12v28.21
				h-7.19V41.07c0-9.73-6.26-14.06-13.92-14.06c-7.66,0-13.92,4.33-13.92,14.06v28.36h-7.19V41.21
				C129.7,29.6,139.2,20.09,150.82,20.09z M437.15,69.42v-48.3h-7.19v48.3H437.15z M396.49,27.48h15.32v-6.35h-15.32V6.55h-7.19
				v14.57h-6.73v6.35h6.73v29.15c0,2.43,0.34,4.51,1.03,6.26c0.68,1.75,1.63,3.16,2.85,4.25c1.21,1.09,2.66,1.88,4.34,2.38
				c1.68,0.5,3.49,0.75,5.42,0.75c1.74,0,3.32-0.17,4.72-0.51c1.4-0.34,2.72-0.86,3.97-1.54v-6.17c-1.25,0.62-2.41,1.06-3.5,1.31
				c-1.09,0.25-2.26,0.37-3.5,0.37c-2.43,0-4.39-0.59-5.89-1.78c-1.49-1.18-2.24-3.27-2.24-6.26V27.48z"/>
			<path class="st3" d="M106.18,0c3.64,0,6.59,2.95,6.59,6.59c0,3.64-2.95,6.59-6.59,6.59c-3.64,0-6.59-2.95-6.59-6.59
				C99.59,2.95,102.54,0,106.18,0 M433.55,0c3.64,0,6.59,2.95,6.59,6.59c0,3.64-2.95,6.59-6.59,6.59c-3.63,0-6.59-2.95-6.59-6.59
				C426.97,2.95,429.92,0,433.55,0z M363.95,0c3.64,0,6.59,2.95,6.59,6.59c0,3.64-2.95,6.59-6.59,6.59c-3.64,0-6.59-2.95-6.59-6.59
				C357.36,2.95,360.31,0,363.95,0z"/>
			<path class="st3" d="M32.67,12.6c18.04,0,32.67,14.63,32.67,32.67c0,16.1-11.65,29.48-26.98,32.17V66.97
				c9.64-2.52,16.75-11.28,16.75-21.71c0-12.39-10.04-22.43-22.43-22.43c-12.39,0-22.43,10.04-22.43,22.43
				c0,10.43,7.11,19.19,16.75,21.71v10.47C11.65,74.75,0,61.37,0,45.26C0,27.23,14.63,12.6,32.67,12.6"/>
			<rect x="26.98" y="46.21" class="st2" width="11.37" height="64.84"/>
		</g>
	</g>
</g>
</svg>
